<svg width="687" height="620" viewBox="0 0 687 620" fill="none" xmlns="http://www.w3.org/2000/svg">
<rect x="206.1" y="35.2" width="274.8" height="206.4" fill="#858480"/>
<rect x="206.1" y="0.800049" width="274.8" height="34.4" fill="#C09E85"/>
<rect x="249.037" y="104" width="77.2875" height="77.4" fill="#E6E4E0"/>
<rect x="360.675" y="104" width="77.2875" height="77.4" fill="#E6E4E0"/>
<rect x="77.2871" y="276" width="532.425" height="309.6" fill="#858480"/>
<rect x="77.2871" y="241.6" width="532.425" height="34.4" fill="#C09E85"/>
<rect x="120.225" y="344.8" width="77.2875" height="77.4" fill="#E6E4E0"/>
<rect x="240.45" y="344.8" width="77.2875" height="77.4" fill="#E6E4E0"/>
<rect x="360.675" y="344.8" width="77.2875" height="77.4" fill="#E6E4E0"/>
<rect x="480.9" y="344.8" width="77.2875" height="77.4" fill="#E6E4E0"/>
<path d="M245.037 473.8C247.246 473.8 249.037 475.591 249.037 477.8V585.6H180.337V477.8C180.337 475.591 182.128 473.8 184.337 473.8H245.037Z" fill="#D5CABA"/>
<path d="M373.85 473.8C376.059 473.8 377.85 475.591 377.85 477.8V585.6H309.15V477.8C309.15 475.591 310.94 473.8 313.15 473.8H373.85Z" fill="#D5CABA"/>
<path d="M502.662 473.8C504.871 473.8 506.662 475.591 506.662 477.8V585.6H437.962V477.8C437.962 475.591 439.753 473.8 441.962 473.8H502.662Z" fill="#D5CABA"/>
</svg>
