<svg width="407" height="449" viewBox="0 0 407 449" fill="none" xmlns="http://www.w3.org/2000/svg">
<path d="M179.317 441.113C135.683 246.689 114.904 -105.297 380.868 42.1446C458.995 348.891 279.054 435.934 179.317 441.113C133.605 443.702 35.8079 439.418 10.3197 401.569C-15.1685 363.72 112.365 412.161 179.317 441.113Z" fill="#DCB482"/>
<path d="M179.317 441.113C135.683 246.689 114.904 -105.297 380.868 42.1446C458.995 348.891 279.054 435.934 179.317 441.113ZM179.317 441.113C112.365 412.161 -15.1685 363.72 10.3197 401.569C35.8079 439.418 133.605 443.702 179.317 441.113Z" stroke="#8F837A" stroke-width="13.8905"/>
<ellipse cx="334.461" cy="78.8637" rx="13.8523" ry="14.1228" fill="#8F837A"/>
</svg>
