<svg width="476" height="477" viewBox="0 0 476 477" fill="none" xmlns="http://www.w3.org/2000/svg">
<path opacity="0.4" d="M59.5 178.875H416.5V357.75C416.5 401.657 380.981 437.25 337.167 437.25H138.833C95.0187 437.25 59.5 401.657 59.5 357.75V178.875Z" fill="#B9B99D"/>
<path d="M337.167 69.5625H138.833C95.0187 69.5625 59.5 105.156 59.5 149.062V178.875H416.5V149.062C416.5 105.156 380.981 69.5625 337.167 69.5625Z" fill="#B9B99D"/>
<path opacity="0.4" fill-rule="evenodd" clip-rule="evenodd" d="M158.667 24.8438C166.882 24.8438 173.542 31.5175 173.542 39.75V99.375C173.542 107.607 166.882 114.281 158.667 114.281C150.452 114.281 143.792 107.607 143.792 99.375V39.75C143.792 31.5175 150.452 24.8438 158.667 24.8438ZM317.334 24.8438C325.549 24.8438 332.209 31.5175 332.209 39.75V99.375C332.209 107.607 325.549 114.281 317.334 114.281C309.118 114.281 302.459 107.607 302.459 99.375V39.75C302.459 31.5175 309.118 24.8438 317.334 24.8438Z" fill="#B9B99D"/>
</svg>
