<svg width="687" height="739" viewBox="0 0 687 739" fill="none" xmlns="http://www.w3.org/2000/svg">
<circle cx="343.5" cy="137.5" r="137.5" fill="#D5CABA"/>
<rect x="206.1" y="154.2" width="274.8" height="206.4" fill="#858480"/>
<rect x="206.1" y="119.8" width="274.8" height="34.4" fill="#C09E85"/>
<rect x="249.037" y="223" width="77.2875" height="77.4" fill="#E6E4E0"/>
<rect x="360.675" y="223" width="77.2875" height="77.4" fill="#E6E4E0"/>
<rect x="77.2871" y="395" width="532.425" height="309.6" fill="#858480"/>
<rect x="77.2871" y="360.6" width="532.425" height="34.4" fill="#C09E85"/>
<rect x="120.225" y="463.8" width="77.2875" height="77.4" fill="#E6E4E0"/>
<rect x="240.45" y="463.8" width="77.2875" height="77.4" fill="#E6E4E0"/>
<rect x="360.675" y="463.8" width="77.2875" height="77.4" fill="#E6E4E0"/>
<rect x="480.9" y="463.8" width="77.2875" height="77.4" fill="#E6E4E0"/>
<path d="M245.037 592.8C247.246 592.8 249.037 594.591 249.037 596.8V704.6H180.337V596.8C180.337 594.591 182.128 592.8 184.337 592.8H245.037Z" fill="#D5CABA"/>
<path d="M373.85 592.8C376.059 592.8 377.85 594.591 377.85 596.8V704.6H309.15V596.8C309.15 594.591 310.94 592.8 313.15 592.8H373.85Z" fill="#D5CABA"/>
<path d="M502.662 592.8C504.871 592.8 506.662 594.591 506.662 596.8V704.6H437.962V596.8C437.962 594.591 439.753 592.8 441.962 592.8H502.662Z" fill="#D5CABA"/>
</svg>
