<svg width="672" height="536" viewBox="0 0 672 536" fill="none" xmlns="http://www.w3.org/2000/svg">
<rect x="182.2" y="278.45" width="161.6" height="237.35" fill="#8F837A"/>
<rect x="182.2" y="258.25" width="161.6" height="20.2" fill="#B0B9A8"/>
<rect x="207.45" y="303.7" width="45.45" height="45.45" fill="#E0CFC3"/>
<rect x="273.1" y="303.7" width="45.45" height="45.45" fill="#E0CFC3"/>
<rect x="207.45" y="369.35" width="45.45" height="45.45" fill="#E0CFC3"/>
<rect x="273.1" y="369.35" width="45.45" height="45.45" fill="#E0CFC3"/>
<rect x="182.2" y="20.8999" width="161.6" height="237.35" fill="#8F837A"/>
<rect x="182.2" y="0.699951" width="161.6" height="20.2" fill="#B0B9A8"/>
<rect x="207.45" y="46.1499" width="45.45" height="45.45" fill="#E0CFC3"/>
<rect x="273.1" y="46.1499" width="45.45" height="45.45" fill="#E0CFC3"/>
<rect x="207.45" y="111.8" width="45.45" height="45.45" fill="#E0CFC3"/>
<rect x="273.1" y="111.8" width="45.45" height="45.45" fill="#E0CFC3"/>
<rect x="207.45" y="177.45" width="45.45" height="45.45" fill="#E0CFC3"/>
<rect x="273.1" y="177.45" width="45.45" height="45.45" fill="#E0CFC3"/>
<path d="M279.2 450.15C281.409 450.15 283.2 451.941 283.2 454.15V515.8H242.8V454.15C242.8 451.941 244.591 450.15 246.8 450.15H279.2Z" fill="#B0B9A8"/>
<rect x="338.2" y="278.45" width="161.6" height="237.35" fill="#606C5A"/>
<rect x="338.2" y="258.25" width="161.6" height="20.2" fill="#E0CFC3"/>
<rect x="338.2" y="20.8999" width="161.6" height="237.35" fill="#606C5A"/>
<rect x="338.2" y="0.699951" width="161.6" height="20.2" fill="#E0CFC3"/>
<rect x="363.45" y="46.1499" width="45.45" height="45.45" fill="#E6E4E0"/>
<rect x="429.1" y="46.1499" width="45.45" height="45.45" fill="#E6E4E0"/>
<rect x="363.45" y="111.8" width="45.45" height="45.45" fill="#E6E4E0"/>
<rect x="429.1" y="111.8" width="45.45" height="45.45" fill="#E6E4E0"/>
<rect x="363.45" y="177.45" width="45.45" height="45.45" fill="#E6E4E0"/>
<rect x="429.1" y="177.45" width="45.45" height="45.45" fill="#E6E4E0"/>
<rect x="363.45" y="303.7" width="45.45" height="45.45" fill="#E6E4E0"/>
<rect x="429.1" y="303.7" width="45.45" height="45.45" fill="#E6E4E0"/>
<rect x="363.45" y="369.35" width="45.45" height="45.45" fill="#E6E4E0"/>
<rect x="429.1" y="369.35" width="45.45" height="45.45" fill="#E6E4E0"/>
<path d="M435.2 450.15C437.409 450.15 439.2 451.941 439.2 454.15V515.8H398.8V454.15C398.8 451.941 400.591 450.15 402.8 450.15H435.2Z" fill="#E0CFC3"/>
<rect x="20.2002" y="278.45" width="161.6" height="237.35" fill="#DCB482"/>
<rect x="20.2002" y="258.25" width="161.6" height="20.2" fill="#C09E85"/>
<rect x="45.4502" y="303.7" width="45.45" height="45.45" fill="#F3F0E8"/>
<rect x="111.1" y="303.7" width="45.45" height="45.45" fill="#F3F0E8"/>
<rect x="45.4502" y="369.35" width="45.45" height="45.45" fill="#F3F0E8"/>
<rect x="111.1" y="369.35" width="45.45" height="45.45" fill="#F3F0E8"/>
<path d="M117.2 450.15C119.409 450.15 121.2 451.941 121.2 454.15V515.8H80.8002V454.15C80.8002 451.941 82.5911 450.15 84.8002 450.15H117.2Z" fill="#C09E85"/>
<rect x="500.3" y="349" width="141.4" height="20.2162" fill="#DCB482"/>
<rect x="500.3" y="369.216" width="141.4" height="146.568" fill="#B9B99D"/>
<rect x="540.7" y="419.757" width="60.6" height="96.027" fill="#DCB482"/>
<rect x="500.3" y="182.216" width="141.4" height="20.2162" fill="#DCB482"/>
<rect x="500.3" y="202.432" width="141.4" height="146.568" fill="#B9B99D"/>
<rect x="515.45" y="217.594" width="45.45" height="45.4865" fill="#F3F0E8"/>
<rect x="581.1" y="217.594" width="45.45" height="45.4865" fill="#F3F0E8"/>
<rect x="515.45" y="283.297" width="45.45" height="45.4865" fill="#F3F0E8"/>
<rect x="581.1" y="283.297" width="45.45" height="45.4865" fill="#F3F0E8"/>
</svg>
