<svg width="223" height="216" viewBox="0 0 223 216" fill="none" xmlns="http://www.w3.org/2000/svg">
<path fill-rule="evenodd" clip-rule="evenodd" d="M154.753 117.328C162.5 119.693 169.571 124.504 174.699 131.562C187.239 148.822 183.412 172.98 166.153 185.52C148.893 198.06 124.735 194.234 112.195 176.974C107.067 169.916 104.676 161.704 104.821 153.606L104.678 153.71L104.876 152.118C104.975 150.363 105.193 148.616 105.528 146.891L110.3 108.643L146.898 115.793C149.557 116.032 152.187 116.545 154.744 117.325L154.754 117.327L154.753 117.328Z" fill="#E0CFC3"/>
<path fill-rule="evenodd" clip-rule="evenodd" d="M115.504 151.995C115.649 160.093 113.257 168.305 108.13 175.363C95.5895 192.622 71.432 196.449 54.1721 183.909C36.9122 171.369 33.086 147.211 45.6261 129.951C50.754 122.893 57.8245 118.082 65.5716 115.717L65.4283 115.613L67.0031 115.31C68.7036 114.861 70.4323 114.529 72.1764 114.315L110.026 107.033L114.537 144.05C115.13 146.652 115.455 149.313 115.503 151.985L115.505 151.995L115.504 151.995Z" fill="#E0CFC3"/>
<path fill-rule="evenodd" clip-rule="evenodd" d="M70.4066 125.377C62.7491 128.018 54.2008 128.281 45.9037 125.585C25.6135 118.993 14.5095 97.1998 21.1021 76.9096C27.6948 56.6194 49.4877 45.5154 69.7779 52.1081C78.0749 54.8039 84.836 60.0416 89.479 66.6788L89.5337 66.5103L90.3085 67.9144C91.2605 69.3931 92.1109 70.9345 92.8536 72.527L111.475 106.274L77.6637 122.003C75.3721 123.371 72.9423 124.502 70.4155 125.374L70.4062 125.379L70.4066 125.377Z" fill="#E0CFC3"/>
<path fill-rule="evenodd" clip-rule="evenodd" d="M81.7852 74.2608C76.9076 67.7941 74.0156 59.7454 74.0156 51.0214C74.0156 29.687 91.3105 12.3921 112.645 12.3921C133.979 12.3921 151.274 29.687 151.274 51.0214C151.274 59.7454 148.382 67.7941 143.505 74.2608H143.682L142.586 75.4316C141.474 76.794 140.27 78.079 138.985 79.2775L112.644 107.416L87.2374 80.1199C85.2274 78.3634 83.401 76.402 81.7909 74.2683L81.7839 74.2608H81.7852Z" fill="#E0CFC3"/>
<path fill-rule="evenodd" clip-rule="evenodd" d="M133.912 69.2859C138.555 62.6487 145.316 57.4111 153.613 54.7152C173.903 48.1225 195.696 59.2265 202.289 79.5167C208.881 99.8069 197.777 121.6 177.487 128.192C169.19 130.888 160.642 130.625 152.984 127.984L153.039 128.153L151.587 127.472C149.947 126.836 148.353 126.089 146.817 125.237L111.916 108.88L130.024 76.2818C131.074 73.8274 132.375 71.4843 133.906 69.2936L133.911 69.2847L133.912 69.2859Z" fill="#E0CFC3"/>
<path d="M108.458 82.6525C108.717 79.5327 113.283 79.5327 113.542 82.6525C113.754 85.2069 117.178 85.8881 118.352 83.6092C119.785 80.8259 124.003 82.5734 123.049 85.5547C122.267 87.9958 125.17 89.9357 127.126 88.2792C129.515 86.2561 132.744 89.4851 130.721 91.874C129.064 93.8301 131.004 96.7333 133.445 95.9515C136.427 94.9966 138.174 99.2155 135.391 100.648C133.112 101.822 133.793 105.246 136.347 105.458C139.467 105.717 139.467 110.283 136.347 110.542C133.793 110.754 133.112 114.178 135.391 115.352C138.174 116.785 136.427 121.003 133.445 120.049C131.004 119.267 129.064 122.17 130.721 124.126C132.744 126.515 129.515 129.744 127.126 127.721C125.17 126.064 122.267 128.004 123.048 130.445C124.003 133.427 119.785 135.174 118.352 132.391C117.178 130.112 113.754 130.793 113.542 133.347C113.283 136.467 108.717 136.467 108.458 133.347C108.246 130.793 104.822 130.112 103.648 132.391C102.215 135.174 97.9966 133.427 98.9515 130.445C99.7333 128.004 96.8301 126.064 94.874 127.721C92.4851 129.744 89.2561 126.515 91.2792 124.126C92.9357 122.17 90.9958 119.267 88.5547 120.049C85.5734 121.003 83.8259 116.785 86.6092 115.352C88.8881 114.178 88.2069 110.754 85.6525 110.542C82.5327 110.283 82.5327 105.717 85.6525 105.458C88.2069 105.246 88.8881 101.822 86.6092 100.648C83.8259 99.2155 85.5734 94.9966 88.5547 95.9515C90.9958 96.7333 92.9357 93.8301 91.2792 91.874C89.2561 89.4851 92.4851 86.2561 94.874 88.2792C96.8301 89.9357 99.7333 87.9958 98.9515 85.5547C97.9966 82.5734 102.215 80.8259 103.648 83.6092C104.822 85.8881 108.246 85.2069 108.458 82.6525Z" fill="#DCB482"/>
<path d="M140.699 78.3015L111.001 108" stroke="#606C5A" stroke-width="2"/>
<circle cx="140.699" cy="78.3014" r="6" transform="rotate(45 140.699 78.3014)" fill="#DCB482"/>
<path d="M149.803 91.9272L111 108" stroke="#606C5A" stroke-width="2"/>
<circle cx="149.804" cy="91.9273" r="6" transform="rotate(67.5 149.804 91.9273)" fill="#DCB482"/>
<path d="M153 108L111 108" stroke="#606C5A" stroke-width="2"/>
<circle cx="153" cy="108" r="6" transform="rotate(90 153 108)" fill="#DCB482"/>
<path d="M149.803 124.073L111 108" stroke="#606C5A" stroke-width="2"/>
<circle cx="149.803" cy="124.073" r="6" transform="rotate(112.5 149.803 124.073)" fill="#DCB482"/>
<path d="M140.699 137.698L111.001 108" stroke="#606C5A" stroke-width="2"/>
<circle cx="140.698" cy="137.698" r="6" transform="rotate(135 140.698 137.698)" fill="#DCB482"/>
<path d="M127.072 146.803L111 108" stroke="#606C5A" stroke-width="2"/>
<circle cx="127.073" cy="146.803" r="6" transform="rotate(157.5 127.073 146.803)" fill="#DCB482"/>
<path d="M111 150L111 108" stroke="#606C5A" stroke-width="2"/>
<circle cx="111" cy="150" r="6" transform="rotate(180 111 150)" fill="#DCB482"/>
<path d="M94.9277 146.803L111 108" stroke="#606C5A" stroke-width="2"/>
<circle cx="94.9286" cy="146.803" r="6" transform="rotate(-157.5 94.9286 146.803)" fill="#DCB482"/>
<path d="M81.3027 137.698L111.001 108" stroke="#606C5A" stroke-width="2"/>
<circle cx="81.3027" cy="137.699" r="6" transform="rotate(-135 81.3027 137.699)" fill="#DCB482"/>
<path d="M72.1992 124.073L111.002 108" stroke="#606C5A" stroke-width="2"/>
<circle cx="72.1974" cy="124.073" r="6" transform="rotate(-112.5 72.1974 124.073)" fill="#DCB482"/>
<path d="M69 108L111 108" stroke="#606C5A" stroke-width="2"/>
<circle cx="69" cy="108" r="6" transform="rotate(-90 69 108)" fill="#DCB482"/>
<path d="M72.1992 91.9275L111.002 108" stroke="#606C5A" stroke-width="2"/>
<circle cx="72.1988" cy="91.9274" r="6" transform="rotate(-67.5 72.1988 91.9274)" fill="#DCB482"/>
<path d="M81.3027 78.3015L111.001 108" stroke="#606C5A" stroke-width="2"/>
<circle cx="81.3036" cy="78.3015" r="6" transform="rotate(-45 81.3036 78.3015)" fill="#DCB482"/>
<path d="M94.9297 69.197L111.002 108" stroke="#606C5A" stroke-width="2"/>
<circle cx="94.9292" cy="69.1971" r="6" transform="rotate(-22.5 94.9292 69.1971)" fill="#DCB482"/>
<path d="M111.002 66V108" stroke="#606C5A" stroke-width="2"/>
<circle cx="111.002" cy="66" r="6" fill="#DCB482"/>
<path d="M127.072 69.197L111 108" stroke="#606C5A" stroke-width="2"/>
<circle cx="127.071" cy="69.197" r="6" transform="rotate(22.5 127.071 69.197)" fill="#DCB482"/>
</svg>
