<svg width="250" height="287" viewBox="0 0 250 287" fill="none" xmlns="http://www.w3.org/2000/svg">
<path d="M99.4048 136.255C99.4048 136.255 117.065 116.019 125.611 105.448C131.307 86.7224 126.75 64.6726 112.223 49.8742L66.0758 1.85192C63.7967 -0.56459 60.3793 -0.56459 57.8161 1.55065C54.9668 3.96716 54.9668 8.19532 57.2459 10.913L101.112 59.239C103.675 61.9567 103.391 66.1851 100.542 68.6013L99.9713 69.206C97.4081 71.3212 93.7046 71.3212 91.4253 68.6013L48.1316 18.1623C45.8525 15.7458 42.1487 15.4445 39.5856 17.5577L39.3014 17.8589C36.7382 20.2754 36.4521 24.2026 38.447 27.2213L80.0362 78.265C82.3152 80.9827 82.0311 85.2111 79.4659 87.3264L78.8957 87.9311C76.3325 90.3476 72.3446 89.7429 70.0658 87.0251L29.9014 35.0759C27.6224 32.3582 23.9186 31.7535 21.0716 34.17L20.7875 34.4713C18.2243 36.5865 17.9381 40.5113 19.9331 43.5327L59.2429 97.5961C61.2378 100.314 60.9517 104.241 58.3885 106.354L57.5321 107.262C54.6828 109.678 50.6952 109.074 48.7023 106.055L11.6712 51.9913C9.67632 48.9702 5.40453 48.3676 2.84139 50.7841C0.562332 52.8994 -0.00792624 56.5233 1.70285 59.5419L38.7339 117.834C52.4042 139.277 78.326 146.223 99.407 136.255L99.4048 136.255Z" fill="#DCB482"/>
<path d="M164.919 165.552C161.216 170.988 157.228 177.03 153.24 183.372C149.822 188.807 146.119 194.245 142.415 199.984C152.099 214.179 162.924 229.281 176.026 245.893C214.768 294.52 227.589 289.084 233.856 283.345C240.123 277.606 247.528 265.222 209.075 216.295C193.121 196.36 178.309 180.052 164.92 165.552H164.919Z" fill="#DCB482"/>
<path d="M178.595 152.263C184.292 159.209 194.546 158.303 199.104 150.451L238.128 83.7024C252.655 59.8431 253.509 29.337 239.837 5.17455C236.704 -0.26091 229.298 -0.86551 225.595 4.26863C225.595 4.26863 186.855 59.5401 143.273 113.302C109.091 154.984 70.6362 194.85 53.83 216.294C15.0904 265.222 22.4955 277.606 29.0486 283.345C35.3153 289.084 48.1335 294.519 86.8731 245.591C123.048 199.682 142.989 162.834 164.352 134.444L178.595 152.263Z" fill="#DCB482"/>
</svg>
