<svg width="598" height="607" viewBox="0 0 598 607" fill="none" xmlns="http://www.w3.org/2000/svg">
<path d="M311.274 255L256.069 311.245C271.572 319.096 284.119 331.884 291.794 347.657L347 291.402L311.274 255ZM177.578 340.629C166.264 352.199 159.915 367.843 159.915 384.149C159.915 400.455 166.264 416.099 177.578 427.669C183.167 433.385 189.815 437.922 197.139 441.018C204.462 444.114 212.316 445.708 220.249 445.708C228.182 445.708 236.036 444.114 243.359 441.018C250.683 437.922 257.331 433.385 262.92 427.669C274.234 416.099 280.583 400.455 280.583 384.149C280.583 367.843 274.234 352.199 262.92 340.629C257.325 334.923 250.675 330.396 243.352 327.306C236.03 324.217 228.178 322.627 220.249 322.627C212.32 322.627 204.469 324.217 197.146 327.306C189.823 330.396 183.173 334.923 177.578 340.629V340.629ZM103.11 447.602C101.224 445.787 98.7238 444.775 96.1252 444.775C93.5266 444.775 91.0269 445.787 89.1407 447.602L83.8765 452.968C82.0344 454.845 81 457.386 81 460.036C81 462.686 82.0344 465.228 83.8765 467.104L138.786 523.059C139.702 523.991 140.79 524.731 141.988 525.235C143.185 525.74 144.469 526 145.766 526C147.063 526 148.346 525.74 149.544 525.235C150.742 524.731 151.83 523.991 152.745 523.059L158.02 517.693C159.862 515.816 160.896 513.274 160.896 510.624C160.896 507.975 159.862 505.433 158.02 503.556L103.11 447.602Z" fill="#C09E85"/>
<path d="M378.27 188L326 240.861L361.72 277L414 224.129L378.27 188Z" fill="#C09E85"/>
<path d="M368.046 298.625L299.087 368.894C301.552 381.949 300.84 395.418 297.013 408.13C293.186 420.842 286.36 432.412 277.128 441.835C269.712 449.411 260.895 455.424 251.183 459.527C241.47 463.63 231.056 465.742 220.537 465.742C210.018 465.742 199.603 463.63 189.891 459.527C180.179 455.424 171.362 449.411 163.946 441.835C148.968 426.516 140.562 405.802 140.562 384.213C140.562 362.623 148.968 341.91 163.946 326.591C171.351 319.001 180.168 312.982 189.884 308.883C199.6 304.785 210.021 302.689 220.542 302.717C225.58 302.724 230.606 303.21 235.555 304.168L304.515 233.899L326 212.017C282.595 188.384 234.925 190.925 206.868 219.501C200.682 225.802 195.64 233.162 191.973 241.243C186.218 254.017 176.904 264.798 165.183 272.254C153.461 279.71 139.845 283.514 126.018 283.196C109.119 281.982 92.1565 284.382 76.2275 290.242C60.2985 296.102 45.7573 305.291 33.5436 317.215C-20.3235 372.196 -8.00935 474.233 61.1175 544.682C96.8221 582.86 145.89 605.228 197.706 606.947V606.947C213.652 607.428 229.53 604.648 244.395 598.771C259.261 592.894 272.812 584.041 284.241 572.737C295.706 560.499 304.585 546.008 310.331 530.156C316.078 514.303 318.571 497.424 317.656 480.556C317.353 466.502 321.139 452.669 328.542 440.79C335.944 428.912 346.632 419.516 359.268 413.779C367.718 409.98 375.4 404.624 381.926 397.98C409.944 369.424 412.466 320.937 389.384 276.823L368.007 298.605L368.046 298.625ZM172.28 531.815L167.019 537.178C164.283 539.981 161.025 542.204 157.434 543.716C153.843 545.227 149.992 545.998 146.105 545.983V545.983C142.215 546 138.36 545.23 134.766 543.718C131.172 542.206 127.91 539.983 125.171 537.178L70.3088 481.257C64.8007 475.622 61.7096 468.005 61.7096 460.065C61.7096 452.125 64.8007 444.507 70.3088 438.873L75.5694 433.51C81.2105 428.048 88.705 425.001 96.4986 425.001C104.292 425.001 111.787 428.048 117.428 433.51L172.3 489.431C177.82 495.06 180.917 502.682 180.913 510.627C180.91 518.572 177.805 526.191 172.28 531.815V531.815Z" fill="#C09E85"/>
<path d="M392 173.459L427.72 210L480 156.541L462.642 138.788L444.28 120L392 173.459Z" fill="#C09E85"/>
<path d="M595.234 96.4085L583.615 84.6604L585.988 82.249C588.544 79.6577 589.979 76.1525 589.979 72.4988C589.979 68.8452 588.544 65.3399 585.988 62.7486L536.192 12.4083C533.613 9.90872 530.174 8.5125 526.595 8.5125C523.017 8.5125 519.578 9.90872 516.999 12.4083L514.478 14.9592L502.701 3.05175C501.79 2.09884 500.7 1.33825 499.494 0.814381C498.289 0.290508 496.992 0.0138356 495.679 0.000505772C494.366 -0.0128241 493.064 0.237456 491.848 0.736743C490.632 1.23603 489.527 1.97432 488.597 2.90855C487.667 3.84278 486.932 4.95423 486.433 6.17806C485.934 7.40189 485.682 8.7136 485.691 10.0366C485.701 11.3597 485.972 12.6675 486.488 13.884C487.005 15.1004 487.756 16.201 488.699 17.1215L500.565 29.0788L479.899 49.9145L469.863 39.7707C468.952 38.8178 467.862 38.0572 466.656 37.5333C465.45 37.0094 464.153 36.7328 462.84 36.7194C461.528 36.7061 460.225 36.9564 459.009 37.4557C457.794 37.9549 456.689 38.6932 455.759 39.6275C454.829 40.5617 454.093 41.6732 453.594 42.897C453.096 44.1208 452.844 45.4325 452.853 46.7555C452.863 48.0786 453.133 49.3865 453.65 50.6029C454.166 51.8193 454.918 52.9199 455.861 53.8404L467.984 66.0967L448 96.4085L450.591 99.0291L475.924 124.648L502.958 152L533.117 131.673L544.854 143.54C545.765 144.493 546.855 145.254 548.06 145.778C549.266 146.301 550.563 146.578 551.876 146.591C553.189 146.605 554.491 146.354 555.707 145.855C556.923 145.356 558.028 144.618 558.958 143.683C559.887 142.749 560.623 141.638 561.122 140.414C561.621 139.19 561.873 137.878 561.863 136.555C561.854 135.232 561.583 133.924 561.067 132.708C560.55 131.492 559.798 130.391 558.855 129.47L549.086 119.596L569.653 98.7999L581.232 110.508C583.094 112.326 585.591 113.334 588.184 113.315C590.776 113.296 593.258 112.252 595.094 110.407C596.93 108.562 597.973 106.064 598 103.451C598.026 100.839 597.032 98.3202 595.234 96.4384V96.4085Z" fill="#C09E85"/>
</svg>
