<svg width="735" height="434" viewBox="0 0 735 434" fill="none" xmlns="http://www.w3.org/2000/svg">
<rect width="735" height="434" rx="74" fill="#C09E85"/>
<path d="M248.926 87V21.5455H256.852V50.6932H291.753V21.5455H299.679V87H291.753V57.7244H256.852V87H248.926ZM315.547 87V21.5455H355.05V28.5767H323.473V50.6932H353.005V57.7244H323.473V79.9688H355.561V87H315.547ZM369.336 87V21.5455H377.262V79.9688H407.689V87H369.336ZM419.961 87V21.5455H427.887V79.9688H458.314V87H419.961ZM523.265 54.2727C523.265 61.1761 522.018 67.142 519.525 72.1705C517.032 77.1989 513.613 81.0767 509.266 83.804C504.92 86.5312 499.955 87.8949 494.373 87.8949C488.79 87.8949 483.826 86.5312 479.479 83.804C475.133 81.0767 471.713 77.1989 469.22 72.1705C466.727 67.142 465.481 61.1761 465.481 54.2727C465.481 47.3693 466.727 41.4034 469.22 36.375C471.713 31.3466 475.133 27.4687 479.479 24.7415C483.826 22.0142 488.79 20.6506 494.373 20.6506C499.955 20.6506 504.92 22.0142 509.266 24.7415C513.613 27.4687 517.032 31.3466 519.525 36.375C522.018 41.4034 523.265 47.3693 523.265 54.2727ZM515.594 54.2727C515.594 48.6051 514.646 43.8217 512.75 39.9226C510.875 36.0234 508.329 33.0724 505.111 31.0696C501.915 29.0668 498.336 28.0653 494.373 28.0653C490.41 28.0653 486.819 29.0668 483.602 31.0696C480.406 33.0724 477.86 36.0234 475.964 39.9226C474.089 43.8217 473.151 48.6051 473.151 54.2727C473.151 59.9403 474.089 64.7237 475.964 68.6229C477.86 72.522 480.406 75.473 483.602 77.4759C486.819 79.4787 490.41 80.4801 494.373 80.4801C498.336 80.4801 501.915 79.4787 505.111 77.4759C508.329 75.473 510.875 72.522 512.75 68.6229C514.646 64.7237 515.594 59.9403 515.594 54.2727Z" fill="#F3F0E8"/>
<path d="M263.699 119.455H268.114L278.494 144.81H278.852L289.233 119.455H293.648V150H290.188V126.793H289.889L280.344 150H277.003L267.457 126.793H267.159V150H263.699V119.455ZM298.439 119.455H302.675L311.146 133.713H311.504L319.976 119.455H324.212L313.175 137.412V150H309.476V137.412L298.439 119.455ZM365.03 119.455V150H361.45L344.805 126.017H344.507V150H340.808V119.455H344.388L361.092 143.497H361.391V119.455H365.03ZM373.684 150H369.806L381.022 119.455H384.84L396.056 150H392.178L383.051 124.287H382.812L373.684 150ZM375.116 138.068H390.747V141.349H375.116V138.068ZM400.814 119.455H405.229L415.61 144.81H415.968L426.348 119.455H430.763V150H427.303V126.793H427.004L417.459 150H414.118L404.573 126.793H404.274V150H400.814V119.455ZM438.179 150V119.455H456.614V122.736H441.878V133.057H455.659V136.338H441.878V146.719H456.853V150H438.179ZM478.792 119.455V150H475.093V119.455H478.792ZM502.913 127.091C502.734 125.58 502.008 124.406 500.736 123.571C499.463 122.736 497.902 122.318 496.052 122.318C494.7 122.318 493.517 122.537 492.503 122.974C491.498 123.412 490.713 124.013 490.146 124.779C489.589 125.545 489.311 126.415 489.311 127.389C489.311 128.205 489.505 128.906 489.893 129.492C490.29 130.069 490.797 130.551 491.414 130.939C492.03 131.317 492.677 131.63 493.353 131.879C494.029 132.117 494.65 132.311 495.217 132.46L498.319 133.295C499.115 133.504 500 133.793 500.974 134.161C501.959 134.528 502.898 135.031 503.793 135.667C504.698 136.293 505.444 137.099 506.03 138.083C506.617 139.067 506.91 140.276 506.91 141.707C506.91 143.358 506.478 144.849 505.613 146.182C504.758 147.514 503.505 148.573 501.854 149.359C500.214 150.144 498.22 150.537 495.873 150.537C493.686 150.537 491.792 150.184 490.191 149.478C488.6 148.772 487.347 147.788 486.432 146.525C485.528 145.262 485.015 143.795 484.896 142.125H488.714C488.814 143.278 489.202 144.233 489.878 144.989C490.564 145.734 491.429 146.291 492.473 146.659C493.527 147.017 494.66 147.196 495.873 147.196C497.285 147.196 498.553 146.967 499.677 146.51C500.8 146.043 501.69 145.396 502.346 144.571C503.003 143.736 503.331 142.761 503.331 141.648C503.331 140.634 503.047 139.808 502.481 139.172C501.914 138.536 501.168 138.018 500.243 137.621C499.319 137.223 498.319 136.875 497.246 136.577L493.487 135.503C491.101 134.817 489.211 133.837 487.819 132.565C486.427 131.292 485.731 129.626 485.731 127.568C485.731 125.858 486.194 124.366 487.118 123.094C488.053 121.811 489.306 120.817 490.877 120.111C492.458 119.395 494.223 119.037 496.172 119.037C498.14 119.037 499.89 119.39 501.422 120.096C502.953 120.792 504.166 121.746 505.061 122.96C505.966 124.173 506.443 125.55 506.493 127.091H502.913Z" fill="#F3F0E8"/>
<rect y="175" width="735" height="167" fill="#F3F0E8"/>
</svg>
